<?xml version="1.0" standalone="no"?>
<!DOCTYPE svg PUBLIC "-//W3C//DTD SVG 20010904//EN"
 "http://www.w3.org/TR/2001/REC-SVG-20010904/DTD/svg10.dtd">
<svg version="1.0" xmlns="http://www.w3.org/2000/svg"
 width="500.000000pt" height="500.000000pt" viewBox="0 0 500.000000 500.000000"
 preserveAspectRatio="xMidYMid meet">
<metadata>
Created by potrace 1.11, written by Peter Selinger 2001-2013
</metadata>
<g transform="translate(0.000000,500.000000) scale(0.100000,-0.100000)"
fill="#000000" stroke="none">
<path d="M1029 4608 c-7 -17 -2 -151 6 -153 5 -2 78 -6 160 -9 207 -9 222 -12
268 -55 37 -33 52 -66 57 -116 2 -22 3 -832 3 -1800 0 -1320 -3 -1770 -11
-1801 -13 -45 -79 -113 -110 -115 -9 0 -26 -2 -37 -5 -11 -2 -90 -7 -175 -10
-85 -4 -157 -9 -160 -11 -3 -3 -5 -37 -5 -76 l0 -72 766 0 766 0 -1 72 c-1 39
-3 73 -6 76 -3 2 -97 7 -210 10 -113 4 -218 9 -234 12 -83 17 -150 72 -163
133 -4 20 -7 417 -8 882 l0 845 390 -1 c372 0 394 -2 470 -23 158 -44 247
-119 288 -241 28 -83 45 -222 46 -373 l1 -78 57 3 57 3 0 795 0 795 -57 3 -57
3 -1 -78 c-3 -235 -34 -388 -94 -467 -59 -77 -159 -131 -300 -162 -16 -4 -203
-9 -415 -11 l-385 -5 1 864 c1 474 4 879 8 898 10 51 31 77 73 92 64 22 1214
18 1323 -6 8 -1 33 -6 55 -10 87 -15 237 -62 285 -89 120 -66 230 -188 294
-328 51 -111 96 -308 131 -579 2 -19 7 -55 10 -80 3 -25 8 -54 10 -65 2 -11 4
-25 4 -30 1 -6 26 -11 57 -12 l56 -1 -7 72 c-4 39 -8 82 -10 96 -2 14 -6 54
-10 90 -7 73 -13 128 -20 180 -3 19 -7 60 -10 90 -13 135 -16 167 -21 205 -10
81 -13 111 -19 170 -3 33 -8 76 -10 95 -3 19 -7 55 -9 80 -6 62 -27 256 -30
277 -3 17 -83 18 -1534 21 -843 1 -1532 1 -1533 0z"/>
</g>
</svg>
